<?xml version="1.0" encoding="iso-8859-1"?>
<!-- Generator: Adobe Illustrator 19.0.0, SVG Export Plug-In . SVG Version: 6.00 Build 0)  -->
<svg version="1.1" id="Layer_1" xmlns="http://www.w3.org/2000/svg" xmlns:xlink="http://www.w3.org/1999/xlink" x="0px" y="0px"
	 viewBox="0 0 512 512" style="enable-background:new 0 0 512 512;" xml:space="preserve">
<g>
	<g>
		<polygon points="33.391,279.932 33.391,122.204 0,122.204 0,313.323 17.802,313.323 17.802,430.332 51.193,430.332 
			51.193,358.606 119.703,358.606 119.703,430.332 153.095,430.332 153.095,313.323 170.564,313.323 170.564,279.932 		"/>
	</g>
</g>
<g>
	<g>
		<polygon points="478.609,122.204 478.609,279.932 341.436,279.932 341.436,313.323 358.905,313.323 358.905,430.332 
			392.297,430.332 392.297,358.606 460.807,358.606 460.807,430.332 494.198,430.332 494.198,313.323 512,313.323 512,122.204 		"/>
	</g>
</g>
<g>
	<g>
		<path d="M400.791,179.898h-95.91L256,81.668l-48.883,98.229h-95.909h-26.91v33.391h26.91v44.522h128.096v139.13h-41.668v33.391
			h116.726v-33.391h-41.667V257.811h128.096V213.29h26.91v-33.391H400.791z M244.414,179.898L256,156.618l11.585,23.28H244.414z"/>
	</g>
</g>
<g>
</g>
<g>
</g>
<g>
</g>
<g>
</g>
<g>
</g>
<g>
</g>
<g>
</g>
<g>
</g>
<g>
</g>
<g>
</g>
<g>
</g>
<g>
</g>
<g>
</g>
<g>
</g>
<g>
</g>
</svg>
